<?xml version="1.0" encoding="utf-8"?>
<!-- Generator: Adobe Illustrator 21.1.0, SVG Export Plug-In . SVG Version: 6.00 Build 0)  -->
<svg version="1.1" id="Layer_1" xmlns="http://www.w3.org/2000/svg" xmlns:xlink="http://www.w3.org/1999/xlink" x="0px" y="0px"
	 viewBox="0 0 146.6 38.9" style="enable-background:new 0 0 146.6 38.9;" xml:space="preserve">
<g>
	<path d="M0,0h10.5c2.8,0,4.9,0.7,6.2,2.1c1.3,1.4,1.9,3.6,1.9,6.8v1.7c0,3.7-1.3,5.9-4,6.6c1.6,0.4,2.8,1.4,3.4,2.9
		c0.7,1.5,1,3.6,1,6.1c0,4.1-0.6,7.3-1.9,9.4c-1.2,2.1-3.5,3.2-6.7,3.2H0V0z M9.2,14.6c0.7,0,1.1-0.2,1.4-0.7
		c0.2-0.5,0.4-1.2,0.4-2.1V7.9c0-1.3-0.6-1.9-1.7-1.9H7.6v8.6H9.2z M11.4,29.1v-4.8c0-1.2-0.2-2.1-0.5-2.7c-0.3-0.6-1-0.9-1.8-0.9
		H7.6V32l0.8,0C10.4,32,11.4,31.1,11.4,29.1z"/>
	<path d="M21.7,38.9V0h7.8v32.3h8v6.6H21.7z"/>
	<path d="M39.3,38.9V0h7.5v38.9H39.3z"/>
	<path d="M49.9,38.9V0h8l3.6,18.6V0H69v38.9h-7.6l-3.9-19.5v19.5H49.9z"/>
	<path d="M72.4,38.9V0h7.7v15.6L83.7,0h7.8l-4.3,17.8l5.2,21.1h-8.1L80.2,20v18.8H72.4z"/>
	<path d="M93.4,38.9V0h7.5v38.9H93.4z"/>
	<path d="M104,38.9V0h8l3.6,18.6V0h7.5v38.9h-7.6l-3.9-19.5v19.5H104z"/>
	<path d="M126.6,38.9V0h7.7v15.6L137.9,0h7.8l-4.3,17.8l5.2,21.1h-8.1L134.3,20v18.8H126.6z"/>
</g>
<g>
</g>
<g>
</g>
<g>
</g>
<g>
</g>
<g>
</g>
<g>
</g>
<g>
</g>
<g>
</g>
<g>
</g>
<g>
</g>
<g>
</g>
<g>
</g>
<g>
</g>
<g>
</g>
<g>
</g>
</svg>
